<svg xmlns="http://www.w3.org/2000/svg" xmlns:xlink="http://www.w3.org/1999/xlink" width="500" zoomAndPan="magnify" viewBox="0 0 375 374.999991" height="500" preserveAspectRatio="xMidYMid meet" version="1.2"><defs><clipPath id="859586c2ad"><path d="M 142 136 L 235 136 L 235 192 L 142 192 Z M 142 136 "/></clipPath><clipPath id="6b1277cf94"><path d="M 188.738281 21.4375 L 328.214844 160.914062 L 186.085938 303.042969 L 46.609375 163.5625 Z M 188.738281 21.4375 "/></clipPath><clipPath id="4c8a16e31d"><path d="M 188.738281 21.4375 L 328.214844 160.914062 L 186.085938 303.042969 L 46.609375 163.5625 Z M 188.738281 21.4375 "/></clipPath><clipPath id="43cd2b2c7b"><path d="M 243 181 L 306 181 L 306 189 L 243 189 Z M 243 181 "/></clipPath><clipPath id="89afb1a40a"><path d="M 188.738281 21.4375 L 328.214844 160.914062 L 186.085938 303.042969 L 46.609375 163.5625 Z M 188.738281 21.4375 "/></clipPath><clipPath id="702aa4f661"><path d="M 188.738281 21.4375 L 328.214844 160.914062 L 186.085938 303.042969 L 46.609375 163.5625 Z M 188.738281 21.4375 "/></clipPath><clipPath id="665ade5528"><path d="M 274.125 152.542969 L 305.347656 183.765625 L 272.800781 216.3125 L 241.578125 185.089844 Z M 274.125 152.542969 "/></clipPath><clipPath id="308d7d1320"><path d="M 72 183 L 135 183 L 135 192 L 72 192 Z M 72 183 "/></clipPath><clipPath id="1931ef6c2f"><path d="M 188.738281 21.4375 L 328.214844 160.914062 L 186.085938 303.042969 L 46.609375 163.5625 Z M 188.738281 21.4375 "/></clipPath><clipPath id="4d25b68d6d"><path d="M 188.738281 21.4375 L 328.214844 160.914062 L 186.085938 303.042969 L 46.609375 163.5625 Z M 188.738281 21.4375 "/></clipPath><clipPath id="b537d38741"><path d="M 104.574219 156.175781 L 135.910156 187.511719 L 103.402344 220.019531 L 72.0625 188.683594 Z M 104.574219 156.175781 "/></clipPath><clipPath id="7cc6fff0dc"><path d="M 104 105 L 151 105 L 151 150 L 104 150 Z M 104 105 "/></clipPath><clipPath id="0b6010f82e"><path d="M 188.738281 21.4375 L 328.214844 160.914062 L 186.085938 303.042969 L 46.609375 163.5625 Z M 188.738281 21.4375 "/></clipPath><clipPath id="4ee82f06d0"><path d="M 188.738281 21.4375 L 328.214844 160.914062 L 186.085938 303.042969 L 46.609375 163.5625 Z M 188.738281 21.4375 "/></clipPath><clipPath id="ea791d7c12"><path d="M 183 69 L 192 69 L 192 132 L 183 132 Z M 183 69 "/></clipPath><clipPath id="b3444d4965"><path d="M 188.738281 21.4375 L 328.214844 160.914062 L 186.085938 303.042969 L 46.609375 163.5625 Z M 188.738281 21.4375 "/></clipPath><clipPath id="b1022ecb03"><path d="M 188.738281 21.4375 L 328.214844 160.914062 L 186.085938 303.042969 L 46.609375 163.5625 Z M 188.738281 21.4375 "/></clipPath><clipPath id="c25558c658"><path d="M 225 102 L 270 102 L 270 148 L 225 148 Z M 225 102 "/></clipPath><clipPath id="0e1cadcf52"><path d="M 188.738281 21.4375 L 328.214844 160.914062 L 186.085938 303.042969 L 46.609375 163.5625 Z M 188.738281 21.4375 "/></clipPath><clipPath id="606ba8b767"><path d="M 188.738281 21.4375 L 328.214844 160.914062 L 186.085938 303.042969 L 46.609375 163.5625 Z M 188.738281 21.4375 "/></clipPath><clipPath id="bdebf4778f"><path d="M 80 143 L 139 143 L 139 169 L 80 169 Z M 80 143 "/></clipPath><clipPath id="b3b060450d"><path d="M 188.738281 21.4375 L 328.214844 160.914062 L 186.085938 303.042969 L 46.609375 163.5625 Z M 188.738281 21.4375 "/></clipPath><clipPath id="e2c43eb13e"><path d="M 188.738281 21.4375 L 328.214844 160.914062 L 186.085938 303.042969 L 46.609375 163.5625 Z M 188.738281 21.4375 "/></clipPath><clipPath id="3eda170199"><path d="M 142 79 L 170 79 L 170 137 L 142 137 Z M 142 79 "/></clipPath><clipPath id="a6ed72dadc"><path d="M 188.738281 21.4375 L 328.214844 160.914062 L 186.085938 303.042969 L 46.609375 163.5625 Z M 188.738281 21.4375 "/></clipPath><clipPath id="d31fec96e6"><path d="M 188.738281 21.4375 L 328.214844 160.914062 L 186.085938 303.042969 L 46.609375 163.5625 Z M 188.738281 21.4375 "/></clipPath><clipPath id="48b51ca922"><path d="M 206 78 L 232 78 L 232 136 L 206 136 Z M 206 78 "/></clipPath><clipPath id="d6682fbf16"><path d="M 188.738281 21.4375 L 328.214844 160.914062 L 186.085938 303.042969 L 46.609375 163.5625 Z M 188.738281 21.4375 "/></clipPath><clipPath id="3f3ede8709"><path d="M 188.738281 21.4375 L 328.214844 160.914062 L 186.085938 303.042969 L 46.609375 163.5625 Z M 188.738281 21.4375 "/></clipPath><clipPath id="7d2536bf73"><path d="M 238 140 L 296 140 L 296 168 L 238 168 Z M 238 140 "/></clipPath><clipPath id="56ed79b35d"><path d="M 188.738281 21.4375 L 328.214844 160.914062 L 186.085938 303.042969 L 46.609375 163.5625 Z M 188.738281 21.4375 "/></clipPath><clipPath id="7e593f3766"><path d="M 188.738281 21.4375 L 328.214844 160.914062 L 186.085938 303.042969 L 46.609375 163.5625 Z M 188.738281 21.4375 "/></clipPath><clipPath id="c9d3f42284"><path d="M 94 170 L 134 170 L 134 179 L 94 179 Z M 94 170 "/></clipPath><clipPath id="4a77a7c3fa"><path d="M 188.738281 21.4375 L 328.214844 160.914062 L 186.085938 303.042969 L 46.609375 163.5625 Z M 188.738281 21.4375 "/></clipPath><clipPath id="5901b57db6"><path d="M 188.738281 21.4375 L 328.214844 160.914062 L 186.085938 303.042969 L 46.609375 163.5625 Z M 188.738281 21.4375 "/></clipPath><clipPath id="78b8d528b4"><path d="M 133 108 L 158 108 L 158 142 L 133 142 Z M 133 108 "/></clipPath><clipPath id="7f7c8859aa"><path d="M 188.738281 21.4375 L 328.214844 160.914062 L 186.085938 303.042969 L 46.609375 163.5625 Z M 188.738281 21.4375 "/></clipPath><clipPath id="cdbe0c521f"><path d="M 188.738281 21.4375 L 328.214844 160.914062 L 186.085938 303.042969 L 46.609375 163.5625 Z M 188.738281 21.4375 "/></clipPath><clipPath id="f2d1e11ebc"><path d="M 196 92 L 205 92 L 205 132 L 196 132 Z M 196 92 "/></clipPath><clipPath id="414ee21993"><path d="M 188.738281 21.4375 L 328.214844 160.914062 L 186.085938 303.042969 L 46.609375 163.5625 Z M 188.738281 21.4375 "/></clipPath><clipPath id="cffad9bc9f"><path d="M 188.738281 21.4375 L 328.214844 160.914062 L 186.085938 303.042969 L 46.609375 163.5625 Z M 188.738281 21.4375 "/></clipPath><clipPath id="baab87b4ec"><path d="M 233 131 L 267 131 L 267 155 L 233 155 Z M 233 131 "/></clipPath><clipPath id="6de72f77a3"><path d="M 188.738281 21.4375 L 328.214844 160.914062 L 186.085938 303.042969 L 46.609375 163.5625 Z M 188.738281 21.4375 "/></clipPath><clipPath id="2a460e391f"><path d="M 188.738281 21.4375 L 328.214844 160.914062 L 186.085938 303.042969 L 46.609375 163.5625 Z M 188.738281 21.4375 "/></clipPath><clipPath id="02d9aad67a"><path d="M 108 135 L 142 135 L 142 158 L 108 158 Z M 108 135 "/></clipPath><clipPath id="bbaf564691"><path d="M 188.738281 21.4375 L 328.214844 160.914062 L 186.085938 303.042969 L 46.609375 163.5625 Z M 188.738281 21.4375 "/></clipPath><clipPath id="2fcd769731"><path d="M 188.738281 21.4375 L 328.214844 160.914062 L 186.085938 303.042969 L 46.609375 163.5625 Z M 188.738281 21.4375 "/></clipPath><clipPath id="0298158e53"><path d="M 168 93 L 179 93 L 179 132 L 168 132 Z M 168 93 "/></clipPath><clipPath id="f1f1c1ae6b"><path d="M 188.738281 21.4375 L 328.214844 160.914062 L 186.085938 303.042969 L 46.609375 163.5625 Z M 188.738281 21.4375 "/></clipPath><clipPath id="ac9ebed633"><path d="M 188.738281 21.4375 L 328.214844 160.914062 L 186.085938 303.042969 L 46.609375 163.5625 Z M 188.738281 21.4375 "/></clipPath><clipPath id="eed0854331"><path d="M 217 106 L 241 106 L 241 140 L 217 140 Z M 217 106 "/></clipPath><clipPath id="b9e7de6b98"><path d="M 188.738281 21.4375 L 328.214844 160.914062 L 186.085938 303.042969 L 46.609375 163.5625 Z M 188.738281 21.4375 "/></clipPath><clipPath id="51044a35a1"><path d="M 188.738281 21.4375 L 328.214844 160.914062 L 186.085938 303.042969 L 46.609375 163.5625 Z M 188.738281 21.4375 "/></clipPath><clipPath id="a2aafb7c87"><path d="M 243 165 L 282 165 L 282 177 L 243 177 Z M 243 165 "/></clipPath><clipPath id="176c90405d"><path d="M 188.738281 21.4375 L 328.214844 160.914062 L 186.085938 303.042969 L 46.609375 163.5625 Z M 188.738281 21.4375 "/></clipPath><clipPath id="d0537c75cd"><path d="M 188.738281 21.4375 L 328.214844 160.914062 L 186.085938 303.042969 L 46.609375 163.5625 Z M 188.738281 21.4375 "/></clipPath></defs><g id="bb8c321a48"><g clip-rule="nonzero" clip-path="url(#859586c2ad)"><g clip-rule="nonzero" clip-path="url(#6b1277cf94)"><g clip-rule="nonzero" clip-path="url(#4c8a16e31d)"><path style=" stroke:none;fill-rule:nonzero;fill:#ffd230;fill-opacity:1;" d="M 234.507812 187.570312 C 234.589844 187.011719 234.683594 186.328125 234.757812 185.511719 C 234.820312 184.699219 234.886719 183.757812 234.921875 182.699219 C 234.925781 182.171875 234.933594 181.613281 234.925781 181.027344 C 234.925781 180.882812 234.925781 180.730469 234.925781 180.582031 C 234.921875 180.433594 234.910156 180.28125 234.902344 180.128906 C 234.886719 179.820312 234.871094 179.507812 234.851562 179.1875 C 234.835938 178.867188 234.816406 178.539062 234.800781 178.203125 C 234.761719 177.871094 234.722656 177.535156 234.6875 177.1875 C 234.644531 176.84375 234.605469 176.492188 234.566406 176.132812 C 234.554688 176.042969 234.542969 175.953125 234.535156 175.863281 C 234.519531 175.773438 234.503906 175.683594 234.492188 175.59375 C 234.460938 175.410156 234.429688 175.226562 234.398438 175.042969 C 234.277344 174.308594 234.164062 173.542969 233.972656 172.769531 C 233.882812 172.378906 233.796875 171.984375 233.703125 171.585938 C 233.683594 171.484375 233.660156 171.386719 233.636719 171.285156 C 233.609375 171.183594 233.582031 171.085938 233.554688 170.984375 C 233.5 170.785156 233.441406 170.582031 233.386719 170.378906 C 233.273438 169.972656 233.160156 169.558594 233.035156 169.144531 C 232.910156 168.730469 232.757812 168.320312 232.617188 167.894531 C 232.542969 167.6875 232.472656 167.472656 232.398438 167.261719 C 232.324219 167.050781 232.257812 166.832031 232.167969 166.621094 C 232 166.199219 231.828125 165.769531 231.65625 165.339844 C 230.257812 161.878906 228.226562 158.320312 225.589844 154.886719 C 225.429688 154.667969 225.25 154.464844 225.082031 154.253906 C 224.90625 154.042969 224.730469 153.832031 224.558594 153.621094 C 224.382812 153.410156 224.207031 153.195312 224.027344 152.984375 C 223.851562 152.773438 223.660156 152.574219 223.472656 152.367188 C 223.09375 151.957031 222.722656 151.539062 222.332031 151.132812 C 221.933594 150.734375 221.527344 150.335938 221.121094 149.9375 C 220.722656 149.527344 220.285156 149.15625 219.855469 148.769531 C 219.421875 148.386719 218.996094 147.988281 218.535156 147.632812 C 218.082031 147.265625 217.621094 146.898438 217.164062 146.527344 C 216.6875 146.179688 216.207031 145.835938 215.722656 145.484375 C 215.246094 145.125 214.738281 144.8125 214.234375 144.480469 C 213.730469 144.152344 213.230469 143.816406 212.699219 143.523438 C 212.171875 143.21875 211.648438 142.910156 211.113281 142.613281 C 210.570312 142.332031 210.023438 142.050781 209.476562 141.769531 C 207.261719 140.695312 204.945312 139.753906 202.535156 139.011719 C 200.121094 138.289062 197.632812 137.734375 195.105469 137.378906 C 194.46875 137.308594 193.835938 137.234375 193.199219 137.164062 L 192.722656 137.113281 L 192.226562 137.082031 L 191.230469 137.027344 L 190.238281 136.972656 L 190.113281 136.96875 L 190.003906 136.96875 L 189.78125 136.964844 L 189.335938 136.964844 L 188.449219 136.957031 L 188.007812 136.957031 L 187.785156 136.953125 C 187.574219 136.957031 187.691406 136.957031 187.628906 136.957031 L 187.570312 136.960938 L 187.449219 136.964844 C 184.890625 137.039062 182.335938 137.324219 179.828125 137.789062 C 179.203125 137.917969 178.578125 138.046875 177.953125 138.175781 C 177.335938 138.324219 176.722656 138.496094 176.109375 138.65625 L 175.648438 138.78125 L 175.417969 138.839844 L 175.191406 138.910156 C 174.890625 139.007812 174.589844 139.105469 174.289062 139.199219 C 173.6875 139.394531 173.082031 139.574219 172.496094 139.8125 C 170.121094 140.652344 167.859375 141.738281 165.707031 142.929688 C 165.441406 143.082031 165.171875 143.234375 164.90625 143.386719 C 164.640625 143.539062 164.375 143.6875 164.117188 143.859375 C 163.605469 144.1875 163.089844 144.515625 162.578125 144.839844 C 162.074219 145.175781 161.589844 145.535156 161.097656 145.882812 C 160.855469 146.058594 160.605469 146.226562 160.371094 146.414062 C 160.136719 146.597656 159.902344 146.78125 159.667969 146.964844 C 159.433594 147.152344 159.199219 147.335938 158.96875 147.519531 C 158.851562 147.613281 158.734375 147.703125 158.621094 147.796875 L 158.289062 148.089844 C 157.84375 148.480469 157.40625 148.867188 156.964844 149.25 C 156.539062 149.652344 156.125 150.058594 155.710938 150.460938 C 155.507812 150.664062 155.292969 150.855469 155.097656 151.066406 C 154.902344 151.277344 154.707031 151.488281 154.511719 151.695312 C 154.316406 151.902344 154.125 152.113281 153.929688 152.320312 L 153.640625 152.628906 L 153.367188 152.953125 C 153.003906 153.382812 152.644531 153.8125 152.285156 154.238281 C 152.105469 154.449219 151.941406 154.675781 151.773438 154.894531 C 151.605469 155.113281 151.4375 155.332031 151.273438 155.550781 C 151.105469 155.769531 150.941406 155.988281 150.777344 156.207031 C 150.617188 156.425781 150.46875 156.652344 150.316406 156.875 C 150.011719 157.320312 149.710938 157.765625 149.410156 158.203125 C 149.132812 158.660156 148.855469 159.109375 148.585938 159.558594 C 148.449219 159.78125 148.3125 160.003906 148.179688 160.226562 C 148.054688 160.457031 147.933594 160.683594 147.808594 160.910156 C 147.566406 161.363281 147.324219 161.808594 147.082031 162.257812 C 146.863281 162.710938 146.648438 163.164062 146.433594 163.613281 C 146.328125 163.835938 146.222656 164.058594 146.117188 164.28125 C 146.019531 164.507812 145.929688 164.734375 145.832031 164.957031 C 145.648438 165.40625 145.464844 165.851562 145.28125 166.292969 C 145.1875 166.511719 145.113281 166.738281 145.035156 166.960938 C 144.957031 167.183594 144.878906 167.402344 144.800781 167.625 C 144.722656 167.84375 144.648438 168.0625 144.570312 168.28125 C 144.496094 168.496094 144.417969 168.710938 144.355469 168.933594 C 144.226562 169.367188 144.097656 169.800781 143.972656 170.226562 C 143.910156 170.4375 143.847656 170.652344 143.785156 170.863281 C 143.726562 171.074219 143.679688 171.285156 143.628906 171.496094 C 143.523438 171.917969 143.429688 172.335938 143.332031 172.746094 C 143.230469 173.152344 143.160156 173.566406 143.085938 173.96875 C 143.011719 174.371094 142.941406 174.769531 142.871094 175.160156 C 142.851562 175.257812 142.835938 175.355469 142.816406 175.453125 C 142.800781 175.550781 142.789062 175.648438 142.777344 175.746094 C 142.75 175.941406 142.726562 176.132812 142.699219 176.324219 C 142.65625 176.707031 142.609375 177.085938 142.5625 177.457031 C 142.421875 178.945312 142.320312 180.332031 142.332031 181.617188 C 142.328125 181.9375 142.324219 182.25 142.320312 182.558594 C 142.332031 182.867188 142.347656 183.171875 142.355469 183.46875 C 142.367188 183.761719 142.382812 184.050781 142.394531 184.332031 C 142.410156 184.609375 142.410156 184.886719 142.445312 185.144531 C 142.496094 185.664062 142.546875 186.152344 142.589844 186.613281 C 142.617188 186.847656 142.640625 187.078125 142.664062 187.296875 C 142.695312 187.515625 142.722656 187.726562 142.753906 187.929688 C 142.871094 188.734375 142.996094 189.417969 143.109375 189.96875 C 143.21875 190.519531 143.324219 190.9375 143.390625 191.21875 C 143.457031 191.5 143.496094 191.644531 143.496094 191.644531 C 143.496094 191.644531 143.5 191.042969 143.546875 189.933594 C 143.570312 189.378906 143.609375 188.695312 143.671875 187.894531 C 143.6875 187.695312 143.707031 187.488281 143.722656 187.273438 C 143.746094 187.0625 143.773438 186.84375 143.800781 186.617188 C 143.851562 186.15625 143.902344 185.667969 143.957031 185.148438 C 143.980469 184.886719 144.035156 184.636719 144.074219 184.371094 C 144.117188 184.105469 144.160156 183.835938 144.203125 183.5625 C 144.246094 183.285156 144.289062 183.003906 144.332031 182.71875 C 144.390625 182.429688 144.453125 182.136719 144.511719 181.835938 C 144.746094 180.632812 145.050781 179.351562 145.425781 178 C 146.183594 175.304688 147.28125 172.351562 148.824219 169.335938 C 149.578125 167.820312 150.496094 166.316406 151.46875 164.792969 C 151.726562 164.421875 151.988281 164.046875 152.25 163.667969 C 152.378906 163.480469 152.511719 163.289062 152.644531 163.101562 C 152.78125 162.917969 152.921875 162.730469 153.066406 162.546875 C 153.347656 162.175781 153.632812 161.804688 153.917969 161.429688 C 154.222656 161.070312 154.527344 160.703125 154.832031 160.339844 C 154.988281 160.15625 155.136719 159.96875 155.296875 159.789062 C 155.460938 159.613281 155.625 159.4375 155.789062 159.257812 C 155.949219 159.078125 156.113281 158.902344 156.277344 158.722656 C 156.441406 158.542969 156.597656 158.359375 156.777344 158.191406 C 157.121094 157.847656 157.472656 157.5 157.820312 157.152344 L 158.082031 156.890625 L 158.355469 156.640625 C 158.539062 156.472656 158.722656 156.304688 158.90625 156.136719 C 159.089844 155.96875 159.277344 155.800781 159.460938 155.632812 C 159.640625 155.460938 159.84375 155.308594 160.035156 155.144531 C 160.421875 154.828125 160.804688 154.5 161.195312 154.179688 C 161.601562 153.871094 162.003906 153.566406 162.414062 153.257812 L 162.71875 153.023438 C 162.820312 152.949219 162.925781 152.878906 163.03125 152.804688 C 163.242188 152.660156 163.453125 152.511719 163.664062 152.367188 C 163.875 152.21875 164.085938 152.074219 164.300781 151.925781 C 164.511719 151.777344 164.734375 151.648438 164.953125 151.507812 C 165.171875 151.371094 165.394531 151.234375 165.613281 151.097656 C 165.835938 150.960938 166.046875 150.8125 166.277344 150.6875 C 166.730469 150.429688 167.183594 150.171875 167.640625 149.914062 C 167.867188 149.78125 168.101562 149.664062 168.335938 149.546875 C 168.570312 149.429688 168.804688 149.3125 169.039062 149.191406 C 169.273438 149.074219 169.507812 148.953125 169.746094 148.832031 C 169.984375 148.726562 170.226562 148.617188 170.46875 148.507812 C 170.707031 148.398438 170.949219 148.292969 171.191406 148.183594 L 171.554688 148.019531 C 171.675781 147.964844 171.800781 147.921875 171.921875 147.871094 C 172.417969 147.675781 172.910156 147.480469 173.40625 147.28125 C 173.910156 147.101562 174.417969 146.9375 174.921875 146.761719 C 176.957031 146.101562 179.046875 145.550781 181.179688 145.1875 C 181.441406 145.128906 181.710938 145.09375 181.980469 145.058594 L 182.78125 144.945312 L 183.585938 144.832031 L 184.398438 144.757812 L 185.207031 144.679688 C 185.476562 144.652344 185.746094 144.625 186.019531 144.617188 L 187.648438 144.546875 L 187.800781 144.539062 C 187.785156 144.539062 187.820312 144.539062 187.832031 144.539062 L 190.085938 144.539062 C 190.121094 144.542969 190.148438 144.546875 190.183594 144.546875 L 190.957031 144.589844 L 191.734375 144.632812 L 192.121094 144.648438 L 192.527344 144.6875 C 193.066406 144.742188 193.605469 144.792969 194.140625 144.847656 C 196.285156 145.125 198.402344 145.535156 200.472656 146.089844 C 200.984375 146.242188 201.496094 146.390625 202.007812 146.542969 C 202.265625 146.613281 202.515625 146.703125 202.765625 146.792969 C 203.019531 146.878906 203.269531 146.964844 203.519531 147.054688 C 203.769531 147.140625 204.023438 147.226562 204.273438 147.3125 C 204.519531 147.410156 204.765625 147.511719 205.011719 147.609375 C 205.253906 147.707031 205.5 147.804688 205.746094 147.902344 L 206.113281 148.046875 L 206.472656 148.210938 C 206.953125 148.429688 207.429688 148.644531 207.90625 148.863281 C 208.378906 149.09375 208.839844 149.335938 209.304688 149.570312 C 209.773438 149.796875 210.21875 150.066406 210.667969 150.316406 C 211.117188 150.574219 211.574219 150.816406 212.003906 151.101562 C 213.769531 152.15625 215.394531 153.378906 216.949219 154.617188 C 217.332031 154.9375 217.714844 155.257812 218.089844 155.574219 C 218.457031 155.90625 218.820312 156.234375 219.179688 156.5625 C 219.359375 156.730469 219.542969 156.890625 219.714844 157.058594 C 219.886719 157.230469 220.058594 157.402344 220.226562 157.574219 C 220.398438 157.746094 220.570312 157.914062 220.738281 158.085938 C 220.90625 158.253906 221.085938 158.417969 221.242188 158.597656 C 223.851562 161.382812 226.03125 164.328125 227.707031 167.269531 C 227.917969 167.636719 228.128906 168.003906 228.332031 168.363281 C 228.441406 168.539062 228.527344 168.726562 228.621094 168.910156 C 228.714844 169.09375 228.808594 169.277344 228.898438 169.457031 C 229.082031 169.820312 229.273438 170.175781 229.441406 170.535156 C 229.601562 170.902344 229.765625 171.257812 229.929688 171.609375 C 230.011719 171.789062 230.089844 171.964844 230.171875 172.140625 C 230.210938 172.226562 230.253906 172.3125 230.289062 172.402344 C 230.324219 172.492188 230.359375 172.578125 230.394531 172.667969 C 230.535156 173.019531 230.675781 173.367188 230.8125 173.714844 C 231.101562 174.398438 231.316406 175.082031 231.554688 175.742188 C 232.457031 178.394531 233.023438 180.804688 233.402344 182.816406 C 233.460938 183.070312 233.488281 183.316406 233.527344 183.554688 C 233.566406 183.792969 233.601562 184.027344 233.636719 184.253906 C 233.703125 184.707031 233.785156 185.128906 233.835938 185.527344 C 233.9375 186.324219 234.011719 187.003906 234.066406 187.558594 C 234.171875 188.664062 234.210938 189.261719 234.210938 189.261719 C 234.210938 189.261719 234.238281 189.113281 234.292969 188.832031 C 234.347656 188.546875 234.425781 188.125 234.507812 187.570312 "/></g></g></g><g clip-rule="nonzero" clip-path="url(#43cd2b2c7b)"><g clip-rule="nonzero" clip-path="url(#89afb1a40a)"><g clip-rule="nonzero" clip-path="url(#702aa4f661)"><g clip-rule="nonzero" clip-path="url(#665ade5528)"><path style=" stroke:none;fill-rule:nonzero;fill:#ffd230;fill-opacity:1;" d="M 247.261719 181.25 C 247.105469 181.242188 246.925781 181.246094 246.765625 181.257812 C 244.675781 181.441406 243.128906 183.285156 243.308594 185.375 C 243.492188 187.464844 245.332031 189.011719 247.425781 188.832031 L 305.3125 183.800781 L 247.261719 181.25 "/></g></g></g></g><g clip-rule="nonzero" clip-path="url(#308d7d1320)"><g clip-rule="nonzero" clip-path="url(#1931ef6c2f)"><g clip-rule="nonzero" clip-path="url(#4d25b68d6d)"><g clip-rule="nonzero" clip-path="url(#b537d38741)"><path style=" stroke:none;fill-rule:nonzero;fill:#ffd230;fill-opacity:1;" d="M 134.179688 187.21875 C 133.996094 185.125 132.152344 183.578125 130.0625 183.761719 L 72.175781 188.792969 L 130.226562 191.34375 C 130.382812 191.347656 130.5625 191.347656 130.722656 191.332031 C 132.8125 191.148438 134.359375 189.308594 134.179688 187.21875 "/></g></g></g></g><g clip-rule="nonzero" clip-path="url(#7cc6fff0dc)"><g clip-rule="nonzero" clip-path="url(#0b6010f82e)"><g clip-rule="nonzero" clip-path="url(#4ee82f06d0)"><path style=" stroke:none;fill-rule:nonzero;fill:#ffd230;fill-opacity:1;" d="M 144.15625 148.828125 C 145.761719 150.179688 148.160156 149.972656 149.507812 148.363281 C 150.859375 146.757812 150.648438 144.359375 149.042969 143.007812 L 104.550781 105.636719 L 143.796875 148.484375 C 143.902344 148.601562 144.03125 148.726562 144.15625 148.828125 "/></g></g></g><g clip-rule="nonzero" clip-path="url(#ea791d7c12)"><g clip-rule="nonzero" clip-path="url(#b3444d4965)"><g clip-rule="nonzero" clip-path="url(#b1022ecb03)"><path style=" stroke:none;fill-rule:nonzero;fill:#ffd230;fill-opacity:1;" d="M 183.707031 128.273438 C 183.890625 130.363281 185.730469 131.914062 187.824219 131.730469 C 189.914062 131.546875 191.460938 129.707031 191.28125 127.617188 L 186.246094 69.726562 L 183.695312 127.777344 C 183.691406 127.933594 183.695312 128.113281 183.707031 128.273438 "/></g></g></g><g clip-rule="nonzero" clip-path="url(#c25558c658)"><g clip-rule="nonzero" clip-path="url(#0e1cadcf52)"><g clip-rule="nonzero" clip-path="url(#606ba8b767)"><path style=" stroke:none;fill-rule:nonzero;fill:#ffd230;fill-opacity:1;" d="M 226.675781 147.0625 C 228.28125 148.410156 230.679688 148.203125 232.03125 146.59375 L 269.40625 102.101562 L 226.554688 141.347656 C 226.4375 141.457031 226.3125 141.585938 226.210938 141.707031 C 224.859375 143.316406 225.070312 145.710938 226.675781 147.0625 "/></g></g></g><g clip-rule="nonzero" clip-path="url(#bdebf4778f)"><g clip-rule="nonzero" clip-path="url(#b3b060450d)"><g clip-rule="nonzero" clip-path="url(#e2c43eb13e)"><path style=" stroke:none;fill-rule:nonzero;fill:#ffd230;fill-opacity:1;" d="M 133.367188 168.257812 C 135.363281 168.90625 137.507812 167.816406 138.15625 165.820312 C 138.804688 163.824219 137.714844 161.679688 135.71875 161.03125 L 80.464844 143.042969 L 132.90625 168.074219 C 133.046875 168.140625 133.214844 168.207031 133.367188 168.257812 "/></g></g></g><g clip-rule="nonzero" clip-path="url(#3eda170199)"><g clip-rule="nonzero" clip-path="url(#a6ed72dadc)"><g clip-rule="nonzero" clip-path="url(#d31fec96e6)"><path style=" stroke:none;fill-rule:nonzero;fill:#ffd230;fill-opacity:1;" d="M 162.339844 134.382812 C 163.292969 136.253906 165.582031 137 167.449219 136.046875 C 169.320312 135.097656 170.066406 132.808594 169.113281 130.9375 L 142.765625 79.148438 L 162.144531 133.929688 C 162.199219 134.074219 162.269531 134.242188 162.339844 134.382812 "/></g></g></g><g clip-rule="nonzero" clip-path="url(#48b51ca922)"><g clip-rule="nonzero" clip-path="url(#d6682fbf16)"><g clip-rule="nonzero" clip-path="url(#3f3ede8709)"><path style=" stroke:none;fill-rule:nonzero;fill:#ffd230;fill-opacity:1;" d="M 206.78125 130.917969 C 206.132812 132.914062 207.222656 135.058594 209.21875 135.710938 C 211.214844 136.359375 213.359375 135.265625 214.007812 133.273438 L 231.996094 78.019531 L 206.964844 130.457031 C 206.898438 130.601562 206.832031 130.765625 206.78125 130.917969 "/></g></g></g><g clip-rule="nonzero" clip-path="url(#7d2536bf73)"><g clip-rule="nonzero" clip-path="url(#56ed79b35d)"><g clip-rule="nonzero" clip-path="url(#7e593f3766)"><path style=" stroke:none;fill-rule:nonzero;fill:#ffd230;fill-opacity:1;" d="M 238.992188 165.003906 C 239.945312 166.875 242.230469 167.617188 244.101562 166.667969 L 295.890625 140.316406 L 241.113281 159.699219 C 240.964844 159.75 240.796875 159.820312 240.65625 159.894531 C 238.785156 160.84375 238.039062 163.132812 238.992188 165.003906 "/></g></g></g><g clip-rule="nonzero" clip-path="url(#c9d3f42284)"><g clip-rule="nonzero" clip-path="url(#4a77a7c3fa)"><g clip-rule="nonzero" clip-path="url(#5901b57db6)"><path style=" stroke:none;fill-rule:nonzero;fill:#ffd230;fill-opacity:1;" d="M 130.546875 178.910156 C 130.648438 178.929688 130.765625 178.953125 130.871094 178.964844 C 132.222656 179.101562 133.429688 178.117188 133.566406 176.765625 C 133.703125 175.414062 132.71875 174.207031 131.367188 174.070312 L 94.984375 170.382812 L 130.546875 178.910156 "/></g></g></g><g clip-rule="nonzero" clip-path="url(#78b8d528b4)"><g clip-rule="nonzero" clip-path="url(#7f7c8859aa)"><g clip-rule="nonzero" clip-path="url(#cdbe0c521f)"><path style=" stroke:none;fill-rule:nonzero;fill:#ffd230;fill-opacity:1;" d="M 156.816406 137.078125 L 133.703125 108.753906 L 152.816406 139.921875 C 152.871094 140.007812 152.9375 140.105469 153.007812 140.1875 C 153.867188 141.242188 155.414062 141.398438 156.46875 140.539062 C 157.519531 139.679688 157.675781 138.132812 156.816406 137.078125 "/></g></g></g><g clip-rule="nonzero" clip-path="url(#f2d1e11ebc)"><g clip-rule="nonzero" clip-path="url(#414ee21993)"><g clip-rule="nonzero" clip-path="url(#cffad9bc9f)"><path style=" stroke:none;fill-rule:nonzero;fill:#ffd230;fill-opacity:1;" d="M 196.074219 128.425781 C 195.9375 129.777344 196.925781 130.984375 198.273438 131.117188 C 199.625 131.253906 200.832031 130.273438 200.96875 128.917969 L 204.65625 92.539062 L 196.132812 128.097656 C 196.109375 128.199219 196.085938 128.316406 196.074219 128.425781 "/></g></g></g><g clip-rule="nonzero" clip-path="url(#baab87b4ec)"><g clip-rule="nonzero" clip-path="url(#6de72f77a3)"><g clip-rule="nonzero" clip-path="url(#2a460e391f)"><path style=" stroke:none;fill-rule:nonzero;fill:#ffd230;fill-opacity:1;" d="M 234.5 154.019531 C 235.359375 155.070312 236.90625 155.230469 237.960938 154.371094 L 266.285156 131.253906 L 235.121094 150.367188 C 235.03125 150.421875 234.933594 150.492188 234.847656 150.558594 C 233.796875 151.417969 233.640625 152.96875 234.5 154.019531 "/></g></g></g><g clip-rule="nonzero" clip-path="url(#02d9aad67a)"><g clip-rule="nonzero" clip-path="url(#bbaf564691)"><g clip-rule="nonzero" clip-path="url(#2fcd769731)"><path style=" stroke:none;fill-rule:nonzero;fill:#ffd230;fill-opacity:1;" d="M 140.707031 152.621094 L 108.664062 135.015625 L 138.0625 156.753906 C 138.144531 156.816406 138.246094 156.878906 138.339844 156.933594 C 139.527344 157.585938 141.023438 157.152344 141.679688 155.960938 C 142.332031 154.769531 141.898438 153.273438 140.707031 152.621094 "/></g></g></g><g clip-rule="nonzero" clip-path="url(#0298158e53)"><g clip-rule="nonzero" clip-path="url(#f1f1c1ae6b)"><g clip-rule="nonzero" clip-path="url(#ac9ebed633)"><path style=" stroke:none;fill-rule:nonzero;fill:#ffd230;fill-opacity:1;" d="M 176.914062 131.566406 C 178.21875 131.1875 178.96875 129.820312 178.589844 128.519531 L 168.378906 93.40625 L 173.796875 129.570312 C 173.8125 129.671875 173.835938 129.789062 173.867188 129.890625 C 174.246094 131.195312 175.609375 131.945312 176.914062 131.566406 "/></g></g></g><g clip-rule="nonzero" clip-path="url(#eed0854331)"><g clip-rule="nonzero" clip-path="url(#b9e7de6b98)"><g clip-rule="nonzero" clip-path="url(#51044a35a1)"><path style=" stroke:none;fill-rule:nonzero;fill:#ffd230;fill-opacity:1;" d="M 218.109375 135.890625 C 217.453125 137.082031 217.886719 138.578125 219.078125 139.230469 C 220.269531 139.882812 221.765625 139.449219 222.417969 138.257812 L 240.023438 106.21875 L 218.285156 135.613281 C 218.226562 135.699219 218.160156 135.796875 218.109375 135.890625 "/></g></g></g><g clip-rule="nonzero" clip-path="url(#a2aafb7c87)"><g clip-rule="nonzero" clip-path="url(#176c90405d)"><g clip-rule="nonzero" clip-path="url(#d0537c75cd)"><path style=" stroke:none;fill-rule:nonzero;fill:#ffd230;fill-opacity:1;" d="M 245.148438 171.417969 C 243.84375 171.796875 243.09375 173.160156 243.472656 174.464844 C 243.851562 175.769531 245.21875 176.519531 246.523438 176.140625 L 281.636719 165.929688 L 245.472656 171.347656 C 245.367188 171.363281 245.25 171.386719 245.148438 171.417969 "/></g></g></g><g style="fill:#f44336;fill-opacity:1;"><g transform="translate(63.820313, 252.292644)"><path style="stroke:none" d="M 25.28125 0.5625 C 21.175781 0.5625 17.492188 -0.101562 14.234375 -1.4375 C 10.984375 -2.769531 8.382812 -4.742188 6.4375 -7.359375 C 4.488281 -9.972656 3.460938 -13.117188 3.359375 -16.796875 L 17.921875 -16.796875 C 18.128906 -14.722656 18.847656 -13.140625 20.078125 -12.046875 C 21.304688 -10.953125 22.90625 -10.40625 24.875 -10.40625 C 26.90625 -10.40625 28.503906 -10.867188 29.671875 -11.796875 C 30.847656 -12.734375 31.4375 -14.03125 31.4375 -15.6875 C 31.4375 -17.070312 30.96875 -18.21875 30.03125 -19.125 C 29.101562 -20.03125 27.957031 -20.773438 26.59375 -21.359375 C 25.238281 -21.941406 23.304688 -22.609375 20.796875 -23.359375 C 17.171875 -24.484375 14.210938 -25.601562 11.921875 -26.71875 C 9.628906 -27.84375 7.65625 -29.492188 6 -31.671875 C 4.34375 -33.859375 3.515625 -36.710938 3.515625 -40.234375 C 3.515625 -45.460938 5.40625 -49.554688 9.1875 -52.515625 C 12.976562 -55.472656 17.914062 -56.953125 24 -56.953125 C 30.1875 -56.953125 35.171875 -55.472656 38.953125 -52.515625 C 42.742188 -49.554688 44.773438 -45.4375 45.046875 -40.15625 L 30.234375 -40.15625 C 30.128906 -41.96875 29.460938 -43.394531 28.234375 -44.4375 C 27.015625 -45.476562 25.441406 -46 23.515625 -46 C 21.867188 -46 20.535156 -45.554688 19.515625 -44.671875 C 18.503906 -43.796875 18 -42.53125 18 -40.875 C 18 -39.0625 18.851562 -37.648438 20.5625 -36.640625 C 22.269531 -35.628906 24.9375 -34.535156 28.5625 -33.359375 C 32.1875 -32.128906 35.128906 -30.953125 37.390625 -29.828125 C 39.660156 -28.710938 41.625 -27.085938 43.28125 -24.953125 C 44.9375 -22.828125 45.765625 -20.082031 45.765625 -16.71875 C 45.765625 -13.519531 44.945312 -10.613281 43.3125 -8 C 41.6875 -5.382812 39.328125 -3.300781 36.234375 -1.75 C 33.140625 -0.207031 29.488281 0.5625 25.28125 0.5625 Z M 25.28125 0.5625 "/></g></g><g style="fill:#f44336;fill-opacity:1;"><g transform="translate(113.015531, 252.292644)"><path style="stroke:none" d="M 49.046875 -44.640625 L 49.046875 0 L 35.359375 0 L 35.359375 -6.078125 C 33.972656 -4.109375 32.09375 -2.519531 29.71875 -1.3125 C 27.34375 -0.113281 24.71875 0.484375 21.84375 0.484375 C 18.425781 0.484375 15.410156 -0.273438 12.796875 -1.796875 C 10.179688 -3.316406 8.15625 -5.515625 6.71875 -8.390625 C 5.28125 -11.273438 4.5625 -14.664062 4.5625 -18.5625 L 4.5625 -44.640625 L 18.15625 -44.640625 L 18.15625 -20.40625 C 18.15625 -17.414062 18.925781 -15.09375 20.46875 -13.4375 C 22.019531 -11.78125 24.101562 -10.953125 26.71875 -10.953125 C 29.382812 -10.953125 31.488281 -11.78125 33.03125 -13.4375 C 34.582031 -15.09375 35.359375 -17.414062 35.359375 -20.40625 L 35.359375 -44.640625 Z M 49.046875 -44.640625 "/></g></g><g style="fill:#f44336;fill-opacity:1;"><g transform="translate(166.930292, 252.292644)"><path style="stroke:none" d="M 32.15625 -45.125 C 37.382812 -45.125 41.554688 -43.425781 44.671875 -40.03125 C 47.796875 -36.644531 49.359375 -31.992188 49.359375 -26.078125 L 49.359375 0 L 35.765625 0 L 35.765625 -24.234375 C 35.765625 -27.222656 34.988281 -29.546875 33.4375 -31.203125 C 31.894531 -32.859375 29.816406 -33.6875 27.203125 -33.6875 C 24.585938 -33.6875 22.503906 -32.859375 20.953125 -31.203125 C 19.410156 -29.546875 18.640625 -27.222656 18.640625 -24.234375 L 18.640625 0 L 4.953125 0 L 4.953125 -44.640625 L 18.640625 -44.640625 L 18.640625 -38.71875 C 20.023438 -40.695312 21.890625 -42.257812 24.234375 -43.40625 C 26.585938 -44.550781 29.226562 -45.125 32.15625 -45.125 Z M 32.15625 -45.125 "/></g></g><g style="fill:#f44336;fill-opacity:1;"><g transform="translate(220.845053, 252.292644)"><path style="stroke:none" d="M 18.640625 -45.203125 L 18.640625 -33.84375 L 36.953125 -33.84375 L 36.953125 -23.28125 L 18.640625 -23.28125 L 18.640625 -10.953125 L 39.359375 -10.953125 L 39.359375 0 L 4.953125 0 L 4.953125 -56.15625 L 39.359375 -56.15625 L 39.359375 -45.203125 Z M 18.640625 -45.203125 "/></g></g><g style="fill:#f44336;fill-opacity:1;"><g transform="translate(264.120838, 252.292644)"><path style="stroke:none" d="M 31.359375 0 L 22.796875 -12.40625 L 15.59375 0 L 0.796875 0 L 15.515625 -22.796875 L 0.40625 -44.640625 L 15.765625 -44.640625 L 24.3125 -32.3125 L 31.515625 -44.640625 L 46.3125 -44.640625 L 31.359375 -22.15625 L 46.71875 0 Z M 31.359375 0 "/></g></g><g style="fill:#f44336;fill-opacity:1;"><g transform="translate(126.471091, 281.792619)"><path style="stroke:none" d="M 8.84375 0.203125 C 7.40625 0.203125 6.117188 -0.03125 4.984375 -0.5 C 3.847656 -0.96875 2.9375 -1.660156 2.25 -2.578125 C 1.570312 -3.492188 1.210938 -4.59375 1.171875 -5.875 L 6.265625 -5.875 C 6.347656 -5.144531 6.601562 -4.585938 7.03125 -4.203125 C 7.457031 -3.828125 8.015625 -3.640625 8.703125 -3.640625 C 9.410156 -3.640625 9.96875 -3.800781 10.375 -4.125 C 10.789062 -4.457031 11 -4.910156 11 -5.484375 C 11 -5.972656 10.835938 -6.375 10.515625 -6.6875 C 10.191406 -7.007812 9.789062 -7.269531 9.3125 -7.46875 C 8.832031 -7.675781 8.15625 -7.910156 7.28125 -8.171875 C 6.007812 -8.566406 4.972656 -8.957031 4.171875 -9.34375 C 3.367188 -9.738281 2.675781 -10.316406 2.09375 -11.078125 C 1.519531 -11.847656 1.234375 -12.847656 1.234375 -14.078125 C 1.234375 -15.910156 1.894531 -17.34375 3.21875 -18.375 C 4.539062 -19.414062 6.269531 -19.9375 8.40625 -19.9375 C 10.5625 -19.9375 12.300781 -19.414062 13.625 -18.375 C 14.957031 -17.34375 15.671875 -15.90625 15.765625 -14.0625 L 10.578125 -14.0625 C 10.546875 -14.695312 10.3125 -15.191406 9.875 -15.546875 C 9.445312 -15.910156 8.898438 -16.09375 8.234375 -16.09375 C 7.648438 -16.09375 7.179688 -15.9375 6.828125 -15.625 C 6.472656 -15.320312 6.296875 -14.882812 6.296875 -14.3125 C 6.296875 -13.675781 6.59375 -13.179688 7.1875 -12.828125 C 7.789062 -12.472656 8.726562 -12.085938 10 -11.671875 C 11.269531 -11.242188 12.300781 -10.832031 13.09375 -10.4375 C 13.882812 -10.050781 14.566406 -9.484375 15.140625 -8.734375 C 15.722656 -7.984375 16.015625 -7.023438 16.015625 -5.859375 C 16.015625 -4.734375 15.726562 -3.710938 15.15625 -2.796875 C 14.59375 -1.878906 13.769531 -1.148438 12.6875 -0.609375 C 11.601562 -0.0664062 10.320312 0.203125 8.84375 0.203125 Z M 8.84375 0.203125 "/></g></g><g style="fill:#f44336;fill-opacity:1;"><g transform="translate(143.688737, 281.792619)"><path style="stroke:none" d="M 16.46875 -8.0625 C 16.46875 -7.613281 16.4375 -7.144531 16.375 -6.65625 L 5.546875 -6.65625 C 5.617188 -5.6875 5.929688 -4.945312 6.484375 -4.4375 C 7.035156 -3.925781 7.710938 -3.671875 8.515625 -3.671875 C 9.703125 -3.671875 10.53125 -4.175781 11 -5.1875 L 16.09375 -5.1875 C 15.832031 -4.15625 15.359375 -3.226562 14.671875 -2.40625 C 13.992188 -1.582031 13.140625 -0.9375 12.109375 -0.46875 C 11.085938 -0.0078125 9.945312 0.21875 8.6875 0.21875 C 7.15625 0.21875 5.789062 -0.101562 4.59375 -0.75 C 3.394531 -1.40625 2.457031 -2.335938 1.78125 -3.546875 C 1.113281 -4.765625 0.78125 -6.1875 0.78125 -7.8125 C 0.78125 -9.4375 1.109375 -10.851562 1.765625 -12.0625 C 2.429688 -13.28125 3.363281 -14.210938 4.5625 -14.859375 C 5.757812 -15.515625 7.132812 -15.84375 8.6875 -15.84375 C 10.195312 -15.84375 11.535156 -15.523438 12.703125 -14.890625 C 13.878906 -14.253906 14.800781 -13.347656 15.46875 -12.171875 C 16.132812 -11.003906 16.46875 -9.632812 16.46875 -8.0625 Z M 11.5625 -9.328125 C 11.5625 -10.148438 11.28125 -10.800781 10.71875 -11.28125 C 10.164062 -11.769531 9.46875 -12.015625 8.625 -12.015625 C 7.820312 -12.015625 7.144531 -11.78125 6.59375 -11.3125 C 6.039062 -10.84375 5.703125 -10.179688 5.578125 -9.328125 Z M 11.5625 -9.328125 "/></g></g><g style="fill:#f44336;fill-opacity:1;"><g transform="translate(160.934388, 281.792619)"><path style="stroke:none" d="M 6.53125 -13.015625 C 7.082031 -13.878906 7.78125 -14.554688 8.625 -15.046875 C 9.46875 -15.546875 10.398438 -15.796875 11.421875 -15.796875 L 11.421875 -10.71875 L 10.109375 -10.71875 C 8.910156 -10.71875 8.015625 -10.460938 7.421875 -9.953125 C 6.828125 -9.441406 6.53125 -8.539062 6.53125 -7.25 L 6.53125 0 L 1.734375 0 L 1.734375 -15.625 L 6.53125 -15.625 Z M 6.53125 -13.015625 "/></g></g><g style="fill:#f44336;fill-opacity:1;"><g transform="translate(172.916751, 281.792619)"><path style="stroke:none" d="M 8.765625 -4.484375 L 12.15625 -15.625 L 17.25 -15.625 L 11.703125 0 L 5.796875 0 L 0.25 -15.625 L 5.375 -15.625 Z M 8.765625 -4.484375 "/></g></g><g style="fill:#f44336;fill-opacity:1;"><g transform="translate(190.442358, 281.792619)"><path style="stroke:none" d="M 4.140625 -17.25 C 3.304688 -17.25 2.617188 -17.492188 2.078125 -17.984375 C 1.546875 -18.484375 1.28125 -19.097656 1.28125 -19.828125 C 1.28125 -20.566406 1.546875 -21.179688 2.078125 -21.671875 C 2.617188 -22.171875 3.304688 -22.421875 4.140625 -22.421875 C 4.960938 -22.421875 5.640625 -22.171875 6.171875 -21.671875 C 6.703125 -21.179688 6.96875 -20.566406 6.96875 -19.828125 C 6.96875 -19.097656 6.703125 -18.484375 6.171875 -17.984375 C 5.640625 -17.492188 4.960938 -17.25 4.140625 -17.25 Z M 6.53125 -15.625 L 6.53125 0 L 1.734375 0 L 1.734375 -15.625 Z M 6.53125 -15.625 "/></g></g><g style="fill:#f44336;fill-opacity:1;"><g transform="translate(198.701227, 281.792619)"><path style="stroke:none" d="M 0.78125 -7.8125 C 0.78125 -9.4375 1.109375 -10.851562 1.765625 -12.0625 C 2.429688 -13.28125 3.359375 -14.210938 4.546875 -14.859375 C 5.734375 -15.515625 7.09375 -15.84375 8.625 -15.84375 C 10.582031 -15.84375 12.21875 -15.328125 13.53125 -14.296875 C 14.851562 -13.273438 15.71875 -11.832031 16.125 -9.96875 L 11.03125 -9.96875 C 10.601562 -11.164062 9.773438 -11.765625 8.546875 -11.765625 C 7.660156 -11.765625 6.957031 -11.421875 6.4375 -10.734375 C 5.914062 -10.054688 5.65625 -9.082031 5.65625 -7.8125 C 5.65625 -6.539062 5.914062 -5.5625 6.4375 -4.875 C 6.957031 -4.195312 7.660156 -3.859375 8.546875 -3.859375 C 9.773438 -3.859375 10.601562 -4.457031 11.03125 -5.65625 L 16.125 -5.65625 C 15.71875 -3.820312 14.847656 -2.382812 13.515625 -1.34375 C 12.191406 -0.300781 10.5625 0.21875 8.625 0.21875 C 7.09375 0.21875 5.734375 -0.101562 4.546875 -0.75 C 3.359375 -1.40625 2.429688 -2.335938 1.765625 -3.546875 C 1.109375 -4.765625 0.78125 -6.1875 0.78125 -7.8125 Z M 0.78125 -7.8125 "/></g></g><g style="fill:#f44336;fill-opacity:1;"><g transform="translate(215.638917, 281.792619)"><path style="stroke:none" d="M 16.46875 -8.0625 C 16.46875 -7.613281 16.4375 -7.144531 16.375 -6.65625 L 5.546875 -6.65625 C 5.617188 -5.6875 5.929688 -4.945312 6.484375 -4.4375 C 7.035156 -3.925781 7.710938 -3.671875 8.515625 -3.671875 C 9.703125 -3.671875 10.53125 -4.175781 11 -5.1875 L 16.09375 -5.1875 C 15.832031 -4.15625 15.359375 -3.226562 14.671875 -2.40625 C 13.992188 -1.582031 13.140625 -0.9375 12.109375 -0.46875 C 11.085938 -0.0078125 9.945312 0.21875 8.6875 0.21875 C 7.15625 0.21875 5.789062 -0.101562 4.59375 -0.75 C 3.394531 -1.40625 2.457031 -2.335938 1.78125 -3.546875 C 1.113281 -4.765625 0.78125 -6.1875 0.78125 -7.8125 C 0.78125 -9.4375 1.109375 -10.851562 1.765625 -12.0625 C 2.429688 -13.28125 3.363281 -14.210938 4.5625 -14.859375 C 5.757812 -15.515625 7.132812 -15.84375 8.6875 -15.84375 C 10.195312 -15.84375 11.535156 -15.523438 12.703125 -14.890625 C 13.878906 -14.253906 14.800781 -13.347656 15.46875 -12.171875 C 16.132812 -11.003906 16.46875 -9.632812 16.46875 -8.0625 Z M 11.5625 -9.328125 C 11.5625 -10.148438 11.28125 -10.800781 10.71875 -11.28125 C 10.164062 -11.769531 9.46875 -12.015625 8.625 -12.015625 C 7.820312 -12.015625 7.144531 -11.78125 6.59375 -11.3125 C 6.039062 -10.84375 5.703125 -10.179688 5.578125 -9.328125 Z M 11.5625 -9.328125 "/></g></g><g style="fill:#f44336;fill-opacity:1;"><g transform="translate(232.884567, 281.792619)"><path style="stroke:none" d="M 8.09375 0.21875 C 6.726562 0.21875 5.515625 -0.0078125 4.453125 -0.46875 C 3.390625 -0.9375 2.550781 -1.578125 1.9375 -2.390625 C 1.320312 -3.203125 0.972656 -4.113281 0.890625 -5.125 L 5.625 -5.125 C 5.6875 -4.582031 5.941406 -4.140625 6.390625 -3.796875 C 6.835938 -3.460938 7.382812 -3.296875 8.03125 -3.296875 C 8.632812 -3.296875 9.097656 -3.410156 9.421875 -3.640625 C 9.742188 -3.878906 9.90625 -4.1875 9.90625 -4.5625 C 9.90625 -5.007812 9.671875 -5.335938 9.203125 -5.546875 C 8.742188 -5.765625 7.988281 -6.003906 6.9375 -6.265625 C 5.820312 -6.523438 4.890625 -6.800781 4.140625 -7.09375 C 3.398438 -7.382812 2.757812 -7.84375 2.21875 -8.46875 C 1.675781 -9.09375 1.40625 -9.9375 1.40625 -11 C 1.40625 -11.894531 1.648438 -12.710938 2.140625 -13.453125 C 2.640625 -14.191406 3.367188 -14.773438 4.328125 -15.203125 C 5.285156 -15.628906 6.425781 -15.84375 7.75 -15.84375 C 9.71875 -15.84375 11.265625 -15.359375 12.390625 -14.390625 C 13.515625 -13.421875 14.164062 -12.132812 14.34375 -10.53125 L 9.90625 -10.53125 C 9.832031 -11.070312 9.59375 -11.5 9.1875 -11.8125 C 8.789062 -12.132812 8.265625 -12.296875 7.609375 -12.296875 C 7.054688 -12.296875 6.628906 -12.1875 6.328125 -11.96875 C 6.023438 -11.75 5.875 -11.457031 5.875 -11.09375 C 5.875 -10.644531 6.113281 -10.304688 6.59375 -10.078125 C 7.070312 -9.859375 7.8125 -9.632812 8.8125 -9.40625 C 9.976562 -9.101562 10.921875 -8.804688 11.640625 -8.515625 C 12.367188 -8.234375 13.007812 -7.769531 13.5625 -7.125 C 14.113281 -6.476562 14.398438 -5.613281 14.421875 -4.53125 C 14.421875 -3.613281 14.160156 -2.796875 13.640625 -2.078125 C 13.128906 -1.367188 12.394531 -0.804688 11.4375 -0.390625 C 10.476562 0.015625 9.363281 0.21875 8.09375 0.21875 Z M 8.09375 0.21875 "/></g></g></g></svg>